HIERARCHY
ROOT hip
{
  OFFSET 0 0 0
  CHANNELS 6 Xposition Yposition Zposition Zrotation Yrotation Xrotation
  JOINT abdomen
  {
    OFFSET 0 20.6881 -0.73152
    CHANNELS 3 Zrotation Xrotation Yrotation
    JOINT chest
    {
      OFFSET 0 11.7043 -0.48768
      CHANNELS 3 Zrotation Xrotation Yrotation
      JOINT neck
      {
        OFFSET 0 22.1894 -2.19456
        CHANNELS 3 Zrotation Xrotation Yrotation
        JOINT head
        {
          OFFSET -0.24384 7.07133 1.2192
          CHANNELS 3 Zrotation Xrotation Yrotation
          JOINT leftEye
          {
            OFFSET 4.14528 8.04674 8.04672
            CHANNELS 3 Zrotation Xrotation Yrotation
            End Site
            {
              OFFSET 1 0 0
            }
          }
          JOINT rightEye
          {
            OFFSET -3.6576 8.04674 8.04672
            CHANNELS 3 Zrotation Xrotation Yrotation
            End Site
            {
              OFFSET 1 0 0
            }
          }
        }
      }
      JOINT rCollar
      {
        OFFSET -2.68224 19.2634 -4.8768
        CHANNELS 3 Zrotation Xrotation Yrotation
        JOINT rShldr
        {
          OFFSET -8.77824 -1.95073 1.46304
          CHANNELS 3 Zrotation Xrotation Yrotation
          JOINT rForeArm
          {
            OFFSET -28.1742 -1.7115 0.48768
            CHANNELS 3 Zrotation Xrotation Yrotation
            JOINT rHand
            {
              OFFSET -22.5879 0.773209 7.07136
              CHANNELS 3 Zrotation Xrotation Yrotation
              JOINT rThumb1
              {
                OFFSET -1.2192 -0.487915 3.41376
                CHANNELS 3 Zrotation Xrotation Yrotation
                JOINT rThumb2
                {
                  OFFSET -3.37035 -0.52449 3.41376
                  CHANNELS 3 Zrotation Xrotation Yrotation
                  End Site
                  {
                    OFFSET -1.78271 -1.18214 1.43049
                  }
                }
              }
              JOINT rIndex1
              {
                OFFSET -7.75947 0.938293 5.60832
                CHANNELS 3 Zrotation Xrotation Yrotation
                JOINT rIndex2
                {
                  OFFSET -2.54057 -0.884171 1.56538
                  CHANNELS 3 Zrotation Xrotation Yrotation
                  End Site
                  {
                    OFFSET -1.62519 -0.234802 1.16502
                  }
                }
              }
              JOINT rMid1
              {
                OFFSET -8.24714 1.18213 3.41376
                CHANNELS 3 Zrotation Xrotation Yrotation
                JOINT rMid2
                {
                  OFFSET -3.10165 -0.590103 1.0647
                  CHANNELS 3 Zrotation Xrotation Yrotation
                  End Site
                  {
                    OFFSET -2.48547 -0.328903 0.83742
                  }
                }
              }
              JOINT rRing1
              {
                OFFSET -8.82822 0.546677 1.51678
                CHANNELS 3 Zrotation Xrotation Yrotation
                JOINT rRing2
                {
                  OFFSET -2.60934 -0.819778 -0.0198488
                  CHANNELS 3 Zrotation Xrotation Yrotation
                  End Site
                  {
                    OFFSET -2.33842 -0.294052 0.168128
                  }
                }
              }
              JOINT rPinky1
              {
                OFFSET -8.27202 -0.0477905 -0.4584
                CHANNELS 3 Zrotation Xrotation Yrotation
                JOINT rPinky2
                {
                  OFFSET -1.82734 -0.647385 -0.700984
                  CHANNELS 3 Zrotation Xrotation Yrotation
                  End Site
                  {
                    OFFSET -1.69225 -0.51767 -0.607171
                  }
                }
              }
            }
          }
        }
      }
      JOINT lCollar
      {
        OFFSET 2.68224 19.2634 -4.8768
        CHANNELS 3 Zrotation Xrotation Yrotation
        JOINT lShldr
        {
          OFFSET 8.77824 -1.95073 1.46304
          CHANNELS 3 Zrotation Xrotation Yrotation
          JOINT lForeArm
          {
            OFFSET 28.1742 -1.7115 0.48768
            CHANNELS 3 Zrotation Xrotation Yrotation
            JOINT lHand
            {
              OFFSET 22.5879 0.773209 7.07136
              CHANNELS 3 Zrotation Xrotation Yrotation
              JOINT lThumb1
              {
                OFFSET 1.2192 -0.487915 3.41376
                CHANNELS 3 Zrotation Xrotation Yrotation
                JOINT lThumb2
                {
                  OFFSET 3.37035 -0.52449 3.41376
                  CHANNELS 3 Zrotation Xrotation Yrotation
                  End Site
                  {
                    OFFSET 1.78271 -1.18214 1.43049
                  }
                }
              }
              JOINT lIndex1
              {
                OFFSET 7.75947 0.938293 5.60832
                CHANNELS 3 Zrotation Xrotation Yrotation
                JOINT lIndex2
                {
                  OFFSET 2.54057 -0.884171 1.56538
                  CHANNELS 3 Zrotation Xrotation Yrotation
                  End Site
                  {
                    OFFSET 1.62519 -0.234802 1.16502
                  }
                }
              }
              JOINT lMid1
              {
                OFFSET 8.24714 1.18213 3.41376
                CHANNELS 3 Zrotation Xrotation Yrotation
                JOINT lMid2
                {
                  OFFSET 3.10165 -0.590103 1.0647
                  CHANNELS 3 Zrotation Xrotation Yrotation
                  End Site
                  {
                    OFFSET 2.48547 -0.328903 0.83742
                  }
                }
              }
              JOINT lRing1
              {
                OFFSET 8.82822 0.546677 1.51678
                CHANNELS 3 Zrotation Xrotation Yrotation
                JOINT lRing2
                {
                  OFFSET 2.60934 -0.819778 -0.0198488
                  CHANNELS 3 Zrotation Xrotation Yrotation
                  End Site
                  {
                    OFFSET 2.33842 -0.294052 0.168128
                  }
                }
              }
              JOINT lPinky1
              {
                OFFSET 8.27202 -0.0477905 -0.4584
                CHANNELS 3 Zrotation Xrotation Yrotation
                JOINT lPinky2
                {
                  OFFSET 1.82734 -0.647385 -0.700984
                  CHANNELS 3 Zrotation Xrotation Yrotation
                  End Site
                  {
                    OFFSET 1.69225 -0.51767 -0.607171
                  }
                }
              }
            }
          }
        }
      }
    }
  }
  JOINT rButtock
  {
    OFFSET -8.77824 4.35084 1.2192
    CHANNELS 3 Zrotation Xrotation Yrotation
    JOINT rThigh
    {
      OFFSET 0 -1.70687 -2.19456
      CHANNELS 3 Zrotation Xrotation Yrotation
      JOINT rShin
      {
        OFFSET 0 -36.8199 0.73152
        CHANNELS 3 Zrotation Xrotation Yrotation
        JOINT rFoot
        {
          OFFSET 0.73152 -45.1104 -5.12064
          CHANNELS 3 Zrotation Xrotation Yrotation
          End Site
          {
            OFFSET -1.1221 -3.69964 12.103
          }
        }
      }
    }
  }
  JOINT lButtock
  {
    OFFSET 8.77824 4.35084 1.2192
    CHANNELS 3 Zrotation Xrotation Yrotation
    JOINT lThigh
    {
      OFFSET 0 -1.70687 -2.19456
      CHANNELS 3 Zrotation Xrotation Yrotation
      JOINT lShin
      {
        OFFSET 0 -36.8199 0.73152
        CHANNELS 3 Zrotation Xrotation Yrotation
        JOINT lFoot
        {
          OFFSET -0.73152 -45.1104 -5.12064
          CHANNELS 3 Zrotation Xrotation Yrotation
          End Site
          {
            OFFSET 1.1221 -3.69964 12.103
          }
        }
      }
    }
  }
}
MOTION
Frames:	6
Frame Time:	0.00833333
-5.9058 85.4468 125.584 2.5496 -26.7698 -2.5138 -1.99449 -0.176187 -19.4185 -1.54015 4.46458 -5.33277 3.19751 8.031 5.32881 8.72061 -19.9509 11.5749 -0.0 0.0 0.0 -0.0 0.0 0.0 -1.11857e-13 -2.57427e-13 -1.27123e-13 106.278 50.6191 -59.8479 -13.3398 -6.43384 24.235 -0.00734665 2.44654 0.34405 1.013e-09 1.70103e-09 -1.02788e-09 1.74821e-09 2.93897e-09 -1.78232e-09 1.01301e-09 1.70103e-09 -1.02789e-09 7.73091 5.47488 0.417314 1.013e-09 1.70103e-09 -1.02788e-09 2.90554 0.965183 0.102902 1.01301e-09 1.70103e-09 -1.02788e-09 10.2786 0.731801 0.0259123 1.013e-09 1.70103e-09 -1.02787e-09 2.22167 -0.733487 -0.20892 -1.12032e-13 -2.57427e-13 -1.27322e-13 1.42157 29.0945 -79.2269 27.7432 -41.5971 -86.8344 0.478904 -19.2834 2.81842 -1.2918e-09 7.60887e-10 -2.14459e-09 -2.2072e-09 1.34351e-09 -3.72147e-09 -1.29181e-09 7.60888e-10 -2.14459e-09 -7.73091 5.47488 -0.417314 -1.29181e-09 7.60885e-10 -2.1446e-09 -2.90554 0.965183 -0.102902 -1.2918e-09 7.60881e-10 -2.14459e-09 -10.2786 0.731801 -0.0259123 -1.29179e-09 7.60882e-10 -2.14461e-09 -2.22167 -0.733487 0.20892 -2.03217e-16 0.0 -3.88251e-19 6.56385 -54.7152 9.62992 -0.113967 28.1013 1.05363 -3.20098 -22.9967 -5.46381 2.03217e-16 0.0 3.88251e-19 -11.0699 9.2895 12.8569 -0.116394 11.8069 -1.24415 0.280318 3.16045 5.96227
-6.1185 85.1828 126.225 2.7119 -26.8367 -2.4794 -2.05956 -0.486759 -19.4372 -1.58347 4.53915 -5.33966 3.22902 8.07189 5.36535 8.67369 -19.9853 11.6393 -0.0 0.0 0.0 -0.0 0.0 0.0 -1.1396e-13 -2.40531e-13 -8.97874e-14 107.228 50.0278 -61.2994 -13.4104 -6.48687 24.378 -0.00763684 2.49028 0.350211 1.52956e-09 1.37883e-09 -3.98439e-10 2.64367e-09 2.38151e-09 -6.96158e-10 1.52956e-09 1.37883e-09 -3.98449e-10 7.73091 5.47488 0.417314 1.52956e-09 1.37883e-09 -3.98435e-10 2.90554 0.965183 0.102902 1.52957e-09 1.37883e-09 -3.98435e-10 10.2786 0.731801 0.0259123 1.52955e-09 1.37883e-09 -3.98426e-10 2.22167 -0.733487 -0.20892 -1.14119e-13 -2.4053e-13 -8.99737e-14 1.31776 28.6801 -79.3563 27.6486 -41.9626 -87.5236 0.481277 -19.3289 2.82562 -5.10797e-10 2.01965e-10 -8.669e-10 -8.74985e-10 3.53875e-10 -1.50056e-09 -5.10803e-10 2.01978e-10 -8.66897e-10 -7.73091 5.47488 -0.417314 -5.10802e-10 2.01965e-10 -8.66903e-10 -2.90554 0.965183 -0.102902 -5.10804e-10 2.01962e-10 -8.669e-10 -10.2786 0.731801 -0.0259123 -5.10787e-10 2.01962e-10 -8.66913e-10 -2.22167 -0.733487 0.20892 -2.03217e-16 0.0 -3.88251e-19 6.46151 -54.1808 9.44851 -0.114122 28.025 1.04671 -2.99366 -23.0744 -5.02707 2.03217e-16 0.0 3.88251e-19 -11.3574 9.74584 13.0112 -0.116652 11.6866 -1.24087 0.333573 2.66347 5.96586
-6.33457 84.8829 126.863 2.8479 -26.8739 -2.4316 -2.09249 -0.792272 -19.4596 -1.62891 4.60481 -5.34741 3.25951 8.11663 5.40019 8.62709 -20.0232 11.701 -0.0 0.0 0.0 -0.0 0.0 0.0 -1.03988e-13 -1.7331e-13 3.6449e-14 107.861 49.3988 -62.4036 -13.4218 -6.49542 24.4011 -0.00834761 2.59653 0.365176 2.29669e-09 8.10622e-10 7.36186e-10 3.97423e-09 1.3993e-09 1.26212e-09 2.29669e-09 8.10623e-10 7.36179e-10 7.73091 5.47488 0.417314 2.29668e-09 8.10622e-10 7.36189e-10 2.90554 0.965183 0.102902 2.29669e-09 8.10622e-10 7.3619e-10 10.2786 0.731801 0.0259123 2.29668e-09 8.10623e-10 7.36197e-10 2.22167 -0.733487 -0.20892 -1.04112e-13 -1.73309e-13 3.62813e-14 1.17974 28.3512 -79.4522 27.5559 -42.3079 -88.1694 0.484259 -19.3859 2.83462 8.75875e-10 -8.26071e-10 1.54714e-09 1.48846e-09 -1.46399e-09 2.69281e-09 8.75872e-10 -8.26041e-10 1.54714e-09 -7.73091 5.47488 -0.417314 8.75873e-10 -8.26069e-10 1.54714e-09 -2.90554 0.965183 -0.102902 8.75868e-10 -8.26071e-10 1.54714e-09 -10.2786 0.731801 -0.0259123 8.75882e-10 -8.2607e-10 1.54713e-09 -2.22167 -0.733487 0.20892 -2.03217e-16 0.0 -3.88251e-19 6.33791 -53.6228 9.17468 -0.114628 27.9382 1.03648 -2.74279 -23.1818 -4.49988 2.03217e-16 0.0 3.88251e-19 -11.6197 10.1863 13.1623 -0.11665 11.6346 -1.23862 0.403269 2.00612 6.03312
-6.55562 84.548 127.495 2.9678 -26.8871 -2.3748 -2.10417 -1.09529 -19.491 -1.67501 4.67125 -5.35749 3.28853 8.16442 5.43252 8.58378 -20.0661 11.7591 -0.0 0.0 0.0 -0.0 0.0 0.0 -8.6671e-14 -9.00034e-14 1.81075e-13 108.253 48.7722 -63.2147 -13.387 -6.4692 24.3308 -0.00937364 2.751 0.386933 2.94786e-09 1.96865e-10 1.88665e-09 5.10435e-09 3.38747e-10 3.24829e-09 2.94787e-09 1.96866e-10 1.88665e-09 7.73091 5.47488 0.417314 2.94786e-09 1.96865e-10 1.88666e-09 2.90554 0.965183 0.102902 2.94787e-09 1.96865e-10 1.88666e-09 10.2786 0.731801 0.0259123 2.94786e-09 1.96867e-10 1.88666e-09 2.22167 -0.733487 -0.20892 -8.67577e-14 -9.00013e-14 1.80922e-13 1.02882 28.1045 -79.5289 27.4647 -42.6293 -88.774 0.487249 -19.4427 2.84361 2.26969e-09 -1.85175e-09 3.98253e-09 3.86417e-09 -3.27713e-09 6.92262e-09 2.26968e-09 -1.85171e-09 3.98254e-09 -7.73091 5.47488 -0.417314 2.26969e-09 -1.85175e-09 3.98253e-09 -2.90554 0.965183 -0.102902 2.26968e-09 -1.85175e-09 3.98253e-09 -10.2786 0.731801 -0.0259123 2.26969e-09 -1.85175e-09 3.98252e-09 -2.22167 -0.733487 0.20892 -2.03217e-16 0.0 -3.88251e-19 6.21378 -53.0487 8.90602 -0.115297 27.8442 1.02433 -2.5001 -23.2837 -3.99407 2.03217e-16 0.0 3.88251e-19 -11.8479 10.591 13.2949 -0.116249 11.6685 -1.23722 0.489861 1.22319 6.12948
-6.78105 84.1786 128.123 3.0657 -26.8688 -2.3011 -2.10559 -1.39833 -19.5368 -1.72027 4.74816 -5.37139 3.31564 8.21445 5.4615 8.54676 -20.1156 11.8127 -0.0 0.0 0.0 -0.0 0.0 0.0 -6.67389e-14 -2.48492e-14 2.73577e-13 108.481 48.1819 -63.7844 -13.3188 -6.41773 24.1935 -0.0106083 2.93939 0.41347 3.11656e-09 -2.61994e-10 2.56362e-09 5.39846e-09 -4.53735e-10 4.4181e-09 3.11657e-09 -2.61993e-10 2.56362e-09 7.73091 5.47488 0.417314 3.11656e-09 -2.61995e-10 2.56363e-09 2.90554 0.965183 0.102902 3.11657e-09 -2.61995e-10 2.56362e-09 10.2786 0.731801 0.0259123 3.11656e-09 -2.61991e-10 2.56363e-09 2.22167 -0.733487 -0.20892 -6.67991e-14 -2.48473e-14 2.73428e-13 0.885871 27.9368 -79.6 27.3742 -42.9228 -89.3399 0.489635 -19.4878 2.85075 3.0721e-09 -2.40362e-09 5.3243e-09 5.23321e-09 -4.25261e-09 9.25281e-09 3.0721e-09 -2.40357e-09 5.32431e-09 -7.73091 5.47488 -0.417314 3.0721e-09 -2.40361e-09 5.3243e-09 -2.90554 0.965183 -0.102902 3.07209e-09 -2.40361e-09 5.3243e-09 -10.2786 0.731801 -0.0259123 3.0721e-09 -2.40361e-09 5.32429e-09 -2.22167 -0.733487 0.20892 -2.03217e-16 0.0 -3.88251e-19 6.10324 -52.4666 8.73477 -0.115932 27.7463 1.01167 -2.31934 -23.3461 -3.6223 2.03217e-16 0.0 3.88251e-19 -12.0324 10.9401 13.3936 -0.115301 11.8056 -1.23652 0.592282 0.349321 6.22041
-7.01868 83.7767 128.738 3.1198 -26.8334 -2.201 -2.09486 -1.70564 -19.6003 -1.76536 4.83894 -5.3898 3.3407 8.2699 5.48678 8.52303 -20.1755 11.8628 -0.0 0.0 0.0 -0.0 0.0 0.0 -4.04992e-14 1.63763e-14 2.87747e-13 108.526 47.6245 -64.0939 -13.2079 -6.33338 23.9722 -0.0122368 3.16563 0.445354 2.53033e-09 -5.46787e-10 2.56266e-09 4.38472e-09 -9.44806e-10 4.41943e-09 2.53034e-09 -5.46787e-10 2.56265e-09 7.73091 5.47488 0.417314 2.53033e-09 -5.46788e-10 2.56266e-09 2.90554 0.965183 0.102902 2.53034e-09 -5.46788e-10 2.56266e-09 10.2786 0.731801 0.0259123 2.53033e-09 -5.46785e-10 2.56266e-09 2.22167 -0.733487 -0.20892 -4.05485e-14 1.63763e-14 2.87582e-13 0.747509 27.8524 -79.6666 27.2867 -43.1917 -89.8645 0.491124 -19.5159 2.8552 3.03047e-09 -2.26817e-09 5.07467e-09 5.1661e-09 -4.01302e-09 8.81893e-09 3.03046e-09 -2.26813e-09 5.07468e-09 -7.73091 5.47488 -0.417314 3.03047e-09 -2.26817e-09 5.07467e-09 -2.90554 0.965183 -0.102902 3.03046e-09 -2.26816e-09 5.07467e-09 -10.2786 0.731801 -0.0259123 3.03047e-09 -2.26816e-09 5.07466e-09 -2.22167 -0.733487 0.20892 -2.03217e-16 0.0 -3.88251e-19 6.00827 -51.8803 8.66996 -0.116584 27.6404 0.997549 -2.21726 -23.3592 -3.41787 2.03217e-16 0.0 3.88251e-19 -12.1594 11.2055 13.452 -0.113365 12.0902 -1.23672 0.71624 -0.648323 6.31063
